<svg id="visual" viewBox="0 0 1920 1080" width="1920" height="1080" xmlns="http://www.w3.org/2000/svg" xmlns:xlink="http://www.w3.org/1999/xlink" version="1.1"><rect x="0" y="0" width="1920" height="1080" fill="#fcfafa"></rect><path d="M0 77L83 130L167 83L250 129L334 109L417 125L501 89L584 138L668 114L751 81L835 134L918 136L1002 132L1085 95L1169 124L1252 120L1336 119L1419 132L1503 75L1586 130L1670 116L1753 104L1837 93L1920 105L1920 0L1837 0L1753 0L1670 0L1586 0L1503 0L1419 0L1336 0L1252 0L1169 0L1085 0L1002 0L918 0L835 0L751 0L668 0L584 0L501 0L417 0L334 0L250 0L167 0L83 0L0 0Z" fill="#fca0a5"></path><path d="M0 83L83 100L167 102L250 126L334 88L417 113L501 122L584 127L668 105L751 96L835 96L918 108L1002 72L1085 103L1169 107L1252 117L1336 99L1419 93L1503 81L1586 107L1670 106L1753 129L1837 75L1920 122L1920 0L1837 0L1753 0L1670 0L1586 0L1503 0L1419 0L1336 0L1252 0L1169 0L1085 0L1002 0L918 0L835 0L751 0L668 0L584 0L501 0L417 0L334 0L250 0L167 0L83 0L0 0Z" fill="#ec9298"></path><path d="M0 102L83 78L167 76L250 109L334 71L417 91L501 104L584 110L668 83L751 75L835 88L918 108L1002 77L1085 67L1169 68L1252 69L1336 91L1419 83L1503 72L1586 99L1670 68L1753 104L1837 68L1920 91L1920 0L1837 0L1753 0L1670 0L1586 0L1503 0L1419 0L1336 0L1252 0L1169 0L1085 0L1002 0L918 0L835 0L751 0L668 0L584 0L501 0L417 0L334 0L250 0L167 0L83 0L0 0Z" fill="#dd848c"></path><path d="M0 98L83 86L167 79L250 58L334 77L417 105L501 76L584 78L668 78L751 103L835 95L918 93L1002 66L1085 94L1169 92L1252 92L1336 66L1419 92L1503 69L1586 64L1670 58L1753 74L1837 84L1920 59L1920 0L1837 0L1753 0L1670 0L1586 0L1503 0L1419 0L1336 0L1252 0L1169 0L1085 0L1002 0L918 0L835 0L751 0L668 0L584 0L501 0L417 0L334 0L250 0L167 0L83 0L0 0Z" fill="#cd767f"></path><path d="M0 70L83 59L167 59L250 61L334 54L417 77L501 66L584 77L668 65L751 91L835 95L918 86L1002 78L1085 71L1169 60L1252 55L1336 58L1419 93L1503 69L1586 82L1670 53L1753 86L1837 62L1920 83L1920 0L1837 0L1753 0L1670 0L1586 0L1503 0L1419 0L1336 0L1252 0L1169 0L1085 0L1002 0L918 0L835 0L751 0L668 0L584 0L501 0L417 0L334 0L250 0L167 0L83 0L0 0Z" fill="#be6973"></path><path d="M0 48L83 60L167 80L250 72L334 67L417 81L501 68L584 80L668 52L751 51L835 51L918 77L1002 68L1085 46L1169 68L1252 56L1336 65L1419 49L1503 60L1586 72L1670 58L1753 68L1837 69L1920 71L1920 0L1837 0L1753 0L1670 0L1586 0L1503 0L1419 0L1336 0L1252 0L1169 0L1085 0L1002 0L918 0L835 0L751 0L668 0L584 0L501 0L417 0L334 0L250 0L167 0L83 0L0 0Z" fill="#af5c67"></path><path d="M0 56L83 41L167 60L250 60L334 55L417 51L501 54L584 51L668 73L751 53L835 49L918 43L1002 42L1085 45L1169 67L1252 63L1336 43L1419 56L1503 55L1586 57L1670 64L1753 45L1837 61L1920 72L1920 0L1837 0L1753 0L1670 0L1586 0L1503 0L1419 0L1336 0L1252 0L1169 0L1085 0L1002 0L918 0L835 0L751 0L668 0L584 0L501 0L417 0L334 0L250 0L167 0L83 0L0 0Z" fill="#a04e5b"></path><path d="M0 50L83 48L167 43L250 42L334 40L417 59L501 34L584 41L668 47L751 34L835 63L918 58L1002 40L1085 37L1169 50L1252 62L1336 47L1419 60L1503 40L1586 45L1670 42L1753 59L1837 51L1920 52L1920 0L1837 0L1753 0L1670 0L1586 0L1503 0L1419 0L1336 0L1252 0L1169 0L1085 0L1002 0L918 0L835 0L751 0L668 0L584 0L501 0L417 0L334 0L250 0L167 0L83 0L0 0Z" fill="#914150"></path><path d="M0 48L83 45L167 35L250 36L334 42L417 42L501 34L584 47L668 41L751 40L835 37L918 35L1002 52L1085 43L1169 31L1252 35L1336 38L1419 34L1503 45L1586 39L1670 51L1753 45L1837 37L1920 49L1920 0L1837 0L1753 0L1670 0L1586 0L1503 0L1419 0L1336 0L1252 0L1169 0L1085 0L1002 0L918 0L835 0L751 0L668 0L584 0L501 0L417 0L334 0L250 0L167 0L83 0L0 0Z" fill="#823445"></path><path d="M0 30L83 24L167 30L250 38L334 34L417 39L501 30L584 29L668 36L751 26L835 40L918 24L1002 40L1085 29L1169 38L1252 30L1336 30L1419 26L1503 36L1586 32L1670 29L1753 34L1837 30L1920 37L1920 0L1837 0L1753 0L1670 0L1586 0L1503 0L1419 0L1336 0L1252 0L1169 0L1085 0L1002 0L918 0L835 0L751 0L668 0L584 0L501 0L417 0L334 0L250 0L167 0L83 0L0 0Z" fill="#73273a"></path><path d="M0 28L83 30L167 24L250 27L334 28L417 22L501 24L584 28L668 31L751 24L835 23L918 27L1002 26L1085 26L1169 26L1252 19L1336 17L1419 18L1503 21L1586 26L1670 16L1753 28L1837 18L1920 21L1920 0L1837 0L1753 0L1670 0L1586 0L1503 0L1419 0L1336 0L1252 0L1169 0L1085 0L1002 0L918 0L835 0L751 0L668 0L584 0L501 0L417 0L334 0L250 0L167 0L83 0L0 0Z" fill="#651a2f"></path><path d="M0 13L83 19L167 20L250 20L334 14L417 13L501 18L584 18L668 17L751 19L835 19L918 16L1002 16L1085 15L1169 17L1252 16L1336 14L1419 18L1503 19L1586 20L1670 13L1753 18L1837 17L1920 13L1920 0L1837 0L1753 0L1670 0L1586 0L1503 0L1419 0L1336 0L1252 0L1169 0L1085 0L1002 0L918 0L835 0L751 0L668 0L584 0L501 0L417 0L334 0L250 0L167 0L83 0L0 0Z" fill="#570b25"></path></svg>